<svg fill="none" height="434" viewBox="0 0 825 434" width="825" xmlns="http://www.w3.org/2000/svg"><g fill="#000"><path d="m32.856 425.824h-25.856v1.216h24.864c.448-.363.7787-.768.992-1.216zm.16-.64v-.928h-26.016v1.12h25.984c.0213-.043.032-.107.032-.192zm0-4.96c0-.107-.0107-.213-.032-.32 0-.128-.0107-.245-.032-.352h-25.44c.23467.405.52267.715.864.928h24.64zm-.672-2.24h-25.344c.02133.171.04267.331.064.48.04267.128.08533.256.128.384h25.6c-.064-.171-.128-.32-.192-.448-.064-.149-.1493-.288-.256-.416zm-3.68-1.504h-15.424v-.064h-6.24v.8h24.544c-.4053-.256-.8533-.437-1.344-.544-.4907-.128-1.0027-.192-1.536-.192zm-21.664-2.528h26.016v-.672h-26.016zm0 9.248v.544h26.016v-1.056h-6.24v.512zm.032-10.88h25.984v-.608h-25.728c-.14933.256-.23467.459-.256.608zm22.592 15.68c.2987 0 .5973-.053.896-.16.32-.128.6293-.288.928-.48h-24.448v.64zm-21.408-17.312h24.8v-.544h-24c-.14933.085-.288.171-.416.256s-.256.181-.384.288zm3.104 10.592h15.456v.832h6.24v-.992h-23.136c.2347.064.4693.107.704.128.256.021.5013.032.736.032zm-4.32-5.696h6.24v-.736h-6.24z"/><path d="m36.2812 420.48h17.1521l-1.0881-.928h-16.064zm6.2401.768h3.2l.9919.864h8.6081l-1.152-.992h-17.8881v.992h6.2401zm0-4.8v-.032h-6.2401v.8h17.216l.9281-.8h-8.576l-.0321.032zm-6.2401 2.4h15.328l.992-.864h-16.32zm16.16 8.192h8.5761l-1.4081-1.216h-8.576zm-1.9199-1.664h8.576l-1.312-1.12h-8.576zm-1.888-1.632h8.576l-1.216-1.056h-8.608zm-12.3521 3.296h6.2401v-1.216h-6.2401zm0-1.664h6.2401v-1.12h-6.2401zm0-1.632h6.2401v-1.056h-6.2401zm10.528-8.16h8.5761l.864-.736h-8.608zm1.8881-1.632h8.576l.7999-.672h-8.6079zm4.8639 14.048h8.5761l-.768-.64h-8.576zm-2.9759-15.68h8.576l.7039-.608h-8.576zm1.888-1.632h8.576l.64-.544h-8.576zm-16.1921 4.896h6.2401v-.736h-6.2401zm0-1.632h6.2401v-.672h-6.2401zm0 14.048h6.2401v-.64h-6.2401zm0-15.68h6.2401v-.608h-6.2401zm0-1.632h6.2401v-.544h-6.2401z"/><path d="m67.8585 422.112h21.792l-.672-.992h-20.448zm15.36 1.088.384.544h7.136l-.704-1.056h-22.56l-.704 1.056h7.168l.384-.544zm-14.24-2.72h19.552l-.608-.928h-18.336zm1.088-1.632h17.376l-.576-.864h-7.04l.288.448h-9.76zm2.272-3.264h12.896l-.48-.736h-11.936zm13.536 11.456h7.072l-.832-1.216h-7.104zm-21.312 0h7.04l.864-1.216h-7.104zm1.12-1.664h7.104l.768-1.12h-7.136zm19.04 0h7.104l-.768-1.12h-7.104zm-11.328-11.424h10.752l-.448-.672h-9.856zm5.92 3.264h7.04l-.544-.8h-7.04zm-4.864-4.896h8.608l-.416-.608h-7.776zm18.688 15.04h-7.04l.448.64h7.04zm-29.216.64h7.008l.448-.64h-7.04zm11.616-17.312h6.4l-.352-.544h-5.696z"/><path d="m89 413.952h26.272v-.672h-26.272zm0-1.632h26.272v-.608h-26.272zm0-1.632h26.272v-.544h-26.272zm10.016 16.352h6.272v-1.216h-6.272zm0-1.664h6.272v-1.12h-6.272zm0-1.632h6.272v-1.056h-6.272zm0-1.632h6.272v-.992h-6.272zm0-1.632h6.272v-.928h-6.272zm0-1.632h6.272v-.864h-6.272zm0-1.632h6.272v-.8h-6.272zm0-1.632h6.272v-.736h-6.272zm6.272 12.416v-.64h-6.272v.64z"/><path d="m118.376 427.04h24v-1.216h-24zm0-1.664h24v-1.12h-24zm0-4.896h17.92v-.928h-17.92zm0-6.528h24.032v-.672h-24.032zm0 4.896h17.92v-.864h-17.92zm24 9.152v-.64h-24v.64zm-24-15.68h24.032v-.608h-24.032zm0 10.848v.576h24v-.576zm0-6.72v.768h17.92v-.768zm0-5.76h24.032v-.544h-24.032zm17.92 10.56v-.128h-17.92v.128z"/><path d="m171.965 425.824h-26.496v1.216h25.44c.213-.171.405-.352.576-.544.192-.213.352-.437.48-.672zm.48-1.568h-26.976v1.12h26.72c.064-.171.117-.341.16-.512.042-.192.074-.395.096-.608zm-.448-4.704h-26.528v.928h26.912c-.043-.107-.096-.245-.16-.416s-.139-.341-.224-.512zm-.544-.832c.149-.149.309-.395.48-.736h-26.464v.864h26.08c-.043-.043-.075-.085-.096-.128zm-19.744 4.512v-.544h-6.24v1.056h26.976v-1.056h-6.272v.544zm-6.24-6.752v.736h26.784c.042-.149.085-.277.128-.384.042-.107.064-.181.064-.224v-.192h-6.272v.064zm0-2.528h26.976v-.672h-26.976zm0-1.632h26.976v-.608h-26.976zm22.816 15.68c.768 0 1.493-.213 2.176-.64h-24.992v.64zm-22.816-17.312h26.976v-.544h-26.976zm6.24 10.56h14.464v.864h6.272v-.992h-26.976v.992h6.24zm14.464-5.664h6.272v-.736h-6.272z"/><path d="m175.531 427.04h27.072v-1.216h-27.072zm0-1.664h27.072v-1.12h-27.072zm6.24-2.176v-.512h-6.24v1.056h27.072v-1.056h-6.272v.512zm-6.24-9.248h27.072v-.672h-27.072zm27.072 14.048v-.64h-27.072v.64zm-27.072-15.68h27.072v-.608h-27.072zm0-1.632h27.072v-.544h-27.072zm20.8 11.424h6.272v-.992h-6.272zm-20.8 0h6.24v-.992h-6.24zm20.8-1.632h6.272v-.928h-6.272zm-20.8 0h6.24v-.928h-6.24zm20.8-1.632h6.272v-.864h-6.272zm-20.8 0h6.24v-.864h-6.24zm20.8-1.632h6.272v-.8h-6.272zm0-1.632h6.272v-.736h-6.272zm-20.8 1.536v.096h6.24v-.096z"/><path d="m208.984 422.112h21.791l-.671-.992h-20.448zm15.36 1.088.383.544h7.136l-.703-1.056h-22.56l-.704 1.056h7.168l.383-.544zm-14.24-2.72h19.552l-.608-.928h-18.336zm1.087-1.632h17.377l-.576-.864h-7.04l.288.448h-9.76zm2.273-3.264h12.895l-.479-.736h-11.937zm13.535 11.456h7.073l-.832-1.216h-7.105zm-21.311 0h7.039l.865-1.216h-7.104zm1.119-1.664h7.104l.769-1.12h-7.136zm19.041 0h7.104l-.768-1.12h-7.105zm-11.328-11.424h10.751l-.447-.672h-9.857zm5.919 3.264h7.041l-.544-.8h-7.04zm-4.863-4.896h8.608l-.416-.608h-7.776zm18.688 15.04h-7.041l.448.64h7.041zm-29.216.64h7.007l.448-.64h-7.039zm11.615-17.312h6.401l-.352-.544h-5.696z"/><path d="m262.212 419.552h-25.056v.928h24.416c.256-.256.47-.565.64-.928zm.288-1.472v-.096h-25.344v.864h25.248c.064-.213.096-.469.096-.768zm-1.76 3.04h-23.584v.992h6.24v-.064h6.112l.064.064h7.904l-.192-.192c1.408 0 2.56-.267 3.456-.8zm1.76-7.84h-25.344v.672h25.344zm-.352-1.568h-24.992v.608h25.216c-.042-.107-.085-.203-.128-.288-.021-.107-.053-.213-.096-.32zm-1.664-1.568h-23.328v.544h24.224c-.213-.192-.512-.373-.896-.544zm-5.856 16.896h7.776l-1.216-1.216h-7.808zm-1.696-1.664h7.808l-1.12-1.12h-7.84zm-1.696-1.632h7.872l-1.056-1.056h-7.904zm-14.08 3.296h6.24v-1.216h-6.24zm0-1.664h6.24v-1.12h-6.24zm0-1.632h6.24v-1.056h-6.24zm19.072-6.528h6.272v-.8h-6.272zm6.496 10.144h-7.776l.672.64h7.744zm-6.496-11.776h6.272v-.736h-6.272zm-12.832 12.416v-.64h-6.24v.64z"/><path d="m292.03 425.824h-26.592v1.216h25.472c.49-.32.863-.725 1.12-1.216zm.479-1.568h-27.071v1.12h26.816c.064-.171.117-.341.16-.512.042-.192.074-.395.095-.608zm-20.832-1.056v-.512h-6.239v1.056h27.071v-1.056h-6.303v.512zm-6.239-9.248h27.071v-.672h-27.071zm0-1.632h27.071v-.608h-27.071zm21.951 15.68c1.174 0 2.166-.213 2.977-.64h-24.928v.64zm-21.951-17.312h27.071v-.544h-27.071zm20.768 11.424h6.303v-.992h-6.303zm-20.768 0h6.239v-.992h-6.239zm20.768-1.632h6.303v-.928h-6.303zm-20.768 0h6.239v-.928h-6.239zm20.768-1.632h6.303v-.864h-6.303zm-20.768 0h6.239v-.864h-6.239zm20.768-1.632h6.303v-.8h-6.303zm0-1.632h6.303v-.736h-6.303zm-20.768 1.536v.096h6.239v-.096z"/><path d="m334.481 425.824h-25.856v1.216h24.864c.448-.363.779-.768.992-1.216zm.16-.64v-.928h-26.016v1.12h25.984c.021-.043.032-.107.032-.192zm0-4.96c0-.107-.011-.213-.032-.32 0-.128-.011-.245-.032-.352h-25.44c.235.405.523.715.864.928h24.64zm-.672-2.24h-25.344c.021.171.043.331.064.48.043.128.085.256.128.384h25.6c-.064-.171-.128-.32-.192-.448-.064-.149-.149-.288-.256-.416zm-3.68-1.504h-15.424v-.064h-6.24v.8h24.544c-.405-.256-.853-.437-1.344-.544-.491-.128-1.003-.192-1.536-.192zm-21.664-2.528h26.016v-.672h-26.016zm0 9.248v.544h26.016v-1.056h-6.24v.512zm.032-10.88h25.984v-.608h-25.728c-.149.256-.235.459-.256.608zm22.592 15.68c.299 0 .597-.053.896-.16.32-.128.629-.288.928-.48h-24.448v.64zm-21.408-17.312h24.8v-.544h-24c-.149.085-.288.171-.416.256s-.256.181-.384.288zm3.104 10.592h15.456v.832h6.24v-.992h-23.136c.235.064.469.107.704.128.256.021.501.032.736.032zm-4.32-5.696h6.24v-.736h-6.24z"/><path d="m362.994 425.824h-25.088v1.216h24.096c.448-.363.779-.768.992-1.216zm.16-.64v-.928h-25.248v1.12h25.216c.022-.043.032-.107.032-.192zm-23.904-4.704h23.904v-.928h-24.768c.214.363.502.672.864.928zm-1.152-1.632h25.056v-.864h-25.248c.022.32.086.608.192.864zm6.048-2.368v-.064h-6.24v.8h25.248v-.8h-6.24v.064zm-6.24 6.72v.544h25.248v-1.056h-6.24v.512zm21.856 4.8c.299 0 .598-.053.896-.16.32-.128.63-.288.928-.48h-23.68v.64zm-17.6-6.72h14.752v.832h6.24v-.992h-22.432c.235.064.47.107.704.128.235.021.48.032.736.032zm-4.256-5.696h6.24v-.736h-6.24zm19.008 0h6.24v-.736h-6.24zm0-1.632h6.24v-.672h-6.24zm-19.008 0h6.24v-.672h-6.24zm19.008-1.632h6.24v-.608h-6.24zm-19.008 0h6.24v-.608h-6.24zm0-1.632h6.24v-.544h-6.24zm19.008 0h6.24v-.544h-6.24z"/><path d="m392.075 425.824h-25.856v1.216h24.896c.426-.363.746-.768.96-1.216zm.16-.64v-.928h-26.016v1.12h25.984c.021-.043.032-.107.032-.192zm-26.016-4.704h26.016v-.928h-26.016zm0-1.632h26.016v-.864h-26.016zm26.016-2.368h-19.776v-.064h-6.24v.8h26.016zm-26.016-2.528h26.016v-.672h-26.016zm0 9.248v.544h26.016v-1.056h-6.24v.512zm.032-10.88h25.984v-.608h-25.728c-.15.256-.235.459-.256.608zm22.624 15.68c.298 0 .597-.053.896-.16.32-.128.629-.288.928-.48h-24.48v.64zm-21.44-17.312h24.8v-.544h-24c-.15.085-.288.171-.416.256s-.256.181-.384.288zm18.56 10.592v.832h6.24v-.992h-26.016v.16zm-19.776-5.696h6.24v-.736h-6.24z"/><path d="m395.5 413.952h26.272v-.672h-26.272zm0-1.632h26.272v-.608h-26.272zm0-1.632h26.272v-.544h-26.272zm10.016 16.352h6.272v-1.216h-6.272zm0-1.664h6.272v-1.12h-6.272zm0-1.632h6.272v-1.056h-6.272zm0-1.632h6.272v-.992h-6.272zm0-1.632h6.272v-.928h-6.272zm0-1.632h6.272v-.864h-6.272zm0-1.632h6.272v-.8h-6.272zm0-1.632h6.272v-.736h-6.272zm6.272 12.416v-.64h-6.272v.64z"/><path d="m424.876 427.04h24v-1.216h-24zm0-1.664h24v-1.12h-24zm0-4.896h17.92v-.928h-17.92zm0-6.528h24.032v-.672h-24.032zm0 4.896h17.92v-.864h-17.92zm24 9.152v-.64h-24v.64zm-24-15.68h24.032v-.608h-24.032zm0 10.848v.576h24v-.576zm0-6.72v.768h17.92v-.768zm0-5.76h24.032v-.544h-24.032zm17.92 10.56v-.128h-17.92v.128z"/><path d="m474.497 418.848h6.272v-.864h-28.8v.864h6.24v-.288l.32.288h15.616l.352-.288zm-14.08 1.632h11.872l1.056-.928h-13.984zm-8.448-3.264h13.504l-.928-.8h-12.576zm15.264 0h13.536v-.8h-12.608zm-4.928 4.896h8.096l1.152-.992h-10.4zm6.816-6.528h11.648v-.736h-10.784zm-17.152 0h11.616l-.832-.736h-10.784zm22.528 11.456h6.272v-1.216h-6.272zm-22.528 0h6.24v-1.216h-6.24zm22.528-1.664h6.272v-1.12h-6.272zm-22.528 0h6.24v-1.12h-6.24zm22.528-1.632h6.272v-1.056h-6.272zm-22.528 0h6.24v-1.056h-6.24zm19.04-9.792h9.76v-.672h-8.992zm-19.04 0h9.76l-.768-.672h-8.992zm22.528 8.16h6.272v-.992h-6.272zm-22.528 0h6.24v-.992h-6.24zm12.224 1.632h4.352l1.216-1.056h-6.784zm10.304-3.264h6.272v-.928h-6.272zm-22.528 0h6.24v-.928h-6.24zm20.896-8.16h7.904v-.608h-7.2zm-20.896 0h7.872l-.704-.608h-7.168zm28.8 15.68v-.64h-6.272v.64zm-22.56 0v-.64h-6.24v.64zm16.544-17.312h6.016v-.544h-5.376zm-22.784 0h5.984l-.608-.544h-5.376zm14.112 14.688h.576l1.28-1.12h-3.168z"/><path d="m509.7 425.824h-25.856v1.216h24.896c.426-.363.746-.768.96-1.216zm.16-.64v-.928h-26.016v1.12h25.984c.021-.043.032-.107.032-.192zm-26.016-4.704h26.016v-.928h-26.016zm0-1.632h26.016v-.864h-26.016zm26.016-2.368h-19.776v-.064h-6.24v.8h26.016zm-26.016-2.528h26.016v-.672h-26.016zm0 9.248v.544h26.016v-1.056h-6.24v.512zm.032-10.88h25.984v-.608h-25.728c-.15.256-.235.459-.256.608zm22.624 15.68c.298 0 .597-.053.896-.16.32-.128.629-.288.928-.48h-24.48v.64zm-21.44-17.312h24.8v-.544h-24c-.15.085-.288.171-.416.256s-.256.181-.384.288zm18.56 10.592v.832h6.24v-.992h-26.016v.16zm-19.776-5.696h6.24v-.736h-6.24z"/><path d="m527.66 427.04h22.976v-1.216h-24.064c.278.512.64.917 1.088 1.216zm-1.28-1.664h24.256v-1.12h-24.48c0 .213.022.416.064.608.043.171.096.341.16.512zm-.224-11.424h24.48v-.672h-24.48zm24.48 9.28h-18.208v-.544h-6.272v1.056h24.48zm-24.48-10.912h24.48v-.608h-24.48zm5.12 15.68h19.36v-.64h-22.464c.854.427 1.888.64 3.104.64zm-5.12-17.312h24.48v-.544h-24.48zm0 11.424h6.272v-.992h-6.272zm0-1.632h6.272v-.928h-6.272zm0-1.632h6.272v-.864h-6.272zm0-1.632h6.272v-.8h-6.272zm0-1.632h6.272v-.736h-6.272z"/><path d="m553.719 427.04h27.072v-1.216h-27.072zm0-1.664h27.072v-1.12h-27.072zm6.24-2.176v-.512h-6.24v1.056h27.072v-1.056h-6.272v.512zm-6.24-9.248h27.072v-.672h-27.072zm27.072 14.048v-.64h-27.072v.64zm-27.072-15.68h27.072v-.608h-27.072zm0-1.632h27.072v-.544h-27.072zm20.8 11.424h6.272v-.992h-6.272zm-20.8 0h6.24v-.992h-6.24zm20.8-1.632h6.272v-.928h-6.272zm-20.8 0h6.24v-.928h-6.24zm20.8-1.632h6.272v-.864h-6.272zm-20.8 0h6.24v-.864h-6.24zm20.8-1.632h6.272v-.8h-6.272zm0-1.632h6.272v-.736h-6.272zm-20.8 1.536v.096h6.24v-.096z"/><path d="m608.931 419.552h-25.056v.928h24.416c.256-.256.469-.565.64-.928zm.288-1.472v-.096h-25.344v.864h25.248c.064-.213.096-.469.096-.768zm-1.76 3.04h-23.584v.992h6.24v-.064h6.112l.064.064h7.904l-.192-.192c1.408 0 2.56-.267 3.456-.8zm1.76-7.84h-25.344v.672h25.344zm-.352-1.568h-24.992v.608h25.216c-.043-.107-.085-.203-.128-.288-.021-.107-.053-.213-.096-.32zm-1.664-1.568h-23.328v.544h24.224c-.213-.192-.512-.373-.896-.544zm-5.856 16.896h7.776l-1.216-1.216h-7.808zm-1.696-1.664h7.808l-1.12-1.12h-7.84zm-1.696-1.632h7.872l-1.056-1.056h-7.904zm-14.08 3.296h6.24v-1.216h-6.24zm0-1.664h6.24v-1.12h-6.24zm0-1.632h6.24v-1.056h-6.24zm19.072-6.528h6.272v-.8h-6.272zm6.496 10.144h-7.776l.672.64h7.744zm-6.496-11.776h6.272v-.736h-6.272zm-12.832 12.416v-.64h-6.24v.64z"/><path d="m637.18 419.552h-25.024v.928h24.48c.235-.277.416-.587.544-.928zm.32-1.472v-.096h-25.344v.864h25.248c.064-.213.096-.469.096-.768zm-1.504 3.04h-23.84v.992h6.24v-.064h15.04c.918 0 1.771-.309 2.56-.928zm1.504-7.84h-25.344v.672h25.344zm-.32-1.568h-25.024v.608h25.216c-.042-.213-.106-.416-.192-.608zm-1.568-1.568h-23.456v.544h24.32c-.298-.213-.586-.395-.864-.544zm-23.456 16.896h6.24v-1.216h-6.24zm0-1.664h6.24v-1.12h-6.24zm0-1.632h6.24v-1.056h-6.24zm19.072-6.528h6.272v-.8h-6.272zm0-1.632h6.272v-.736h-6.272zm-12.832 12.416v-.64h-6.24v.64z"/><path d="m640.562 427.04h27.073v-1.216h-27.073zm0-1.664h27.073v-1.12h-27.073zm6.24-2.176v-.512h-6.24v1.056h27.073v-1.056h-6.273v.512zm-6.24-9.248h27.073v-.672h-27.073zm27.073 14.048v-.64h-27.073v.64zm-27.073-15.68h27.073v-.608h-27.073zm0-1.632h27.073v-.544h-27.073zm20.8 11.424h6.273v-.992h-6.273zm-20.8 0h6.24v-.992h-6.24zm20.8-1.632h6.273v-.928h-6.273zm-20.8 0h6.24v-.928h-6.24zm20.8-1.632h6.273v-.864h-6.273zm-20.8 0h6.24v-.864h-6.24zm20.8-1.632h6.273v-.8h-6.273zm0-1.632h6.273v-.736h-6.273zm-20.8 1.536v.096h6.24v-.096z"/><path d="m695.775 419.552h-25.056v.928h24.416c.256-.256.469-.565.64-.928zm.288-1.472v-.096h-25.344v.864h25.248c.064-.213.096-.469.096-.768zm-1.76 3.04h-23.584v.992h6.24v-.064h6.112l.064.064h7.904l-.192-.192c1.408 0 2.56-.267 3.456-.8zm1.76-7.84h-25.344v.672h25.344zm-.352-1.568h-24.992v.608h25.216c-.043-.107-.086-.203-.128-.288-.022-.107-.054-.213-.096-.32zm-1.664-1.568h-23.328v.544h24.224c-.214-.192-.512-.373-.896-.544zm-5.856 16.896h7.776l-1.216-1.216h-7.808zm-1.696-1.664h7.808l-1.12-1.12h-7.84zm-1.696-1.632h7.872l-1.056-1.056h-7.904zm-14.08 3.296h6.24v-1.216h-6.24zm0-1.664h6.24v-1.12h-6.24zm0-1.632h6.24v-1.056h-6.24zm19.072-6.528h6.272v-.8h-6.272zm6.496 10.144h-7.776l.672.64h7.744zm-6.496-11.776h6.272v-.736h-6.272zm-12.832 12.416v-.64h-6.24v.64z"/><path d="m702.296 422.112h21.792l-.672-.992h-20.448zm15.36 1.088.384.544h7.136l-.704-1.056h-22.56l-.704 1.056h7.168l.384-.544zm-14.24-2.72h19.552l-.608-.928h-18.336zm1.088-1.632h17.376l-.576-.864h-7.04l.288.448h-9.76zm2.272-3.264h12.896l-.48-.736h-11.936zm13.536 11.456h7.072l-.832-1.216h-7.104zm-21.312 0h7.04l.864-1.216h-7.104zm1.12-1.664h7.104l.768-1.12h-7.136zm19.04 0h7.104l-.768-1.12h-7.104zm-11.328-11.424h10.752l-.448-.672h-9.856zm5.92 3.264h7.04l-.544-.8h-7.04zm-4.864-4.896h8.608l-.416-.608h-7.776zm18.688 15.04h-7.04l.448.64h7.04zm-29.216.64h7.008l.448-.64h-7.04zm11.616-17.312h6.4l-.352-.544h-5.696z"/><path d="m723.438 413.952h26.271v-.672h-26.271zm0-1.632h26.271v-.608h-26.271zm0-1.632h26.271v-.544h-26.271zm10.015 16.352h6.273v-1.216h-6.273zm0-1.664h6.273v-1.12h-6.273zm0-1.632h6.273v-1.056h-6.273zm0-1.632h6.273v-.992h-6.273zm0-1.632h6.273v-.928h-6.273zm0-1.632h6.273v-.864h-6.273zm0-1.632h6.273v-.8h-6.273zm0-1.632h6.273v-.736h-6.273zm6.273 12.416v-.64h-6.273v.64z"/><path d="m752.781 427.04h6.24v-1.216h-6.24zm0-1.664h6.24v-1.12h-6.24zm0-1.632h6.24v-1.056h-6.24zm0-1.632h6.24v-.992h-6.24zm0-1.632h6.24v-.928h-6.24zm0-1.632h6.24v-.864h-6.24zm0-1.632h6.24v-.8h-6.24zm0-1.632h6.24v-.736h-6.24zm0-1.632h6.24v-.672h-6.24zm6.24 14.048v-.64h-6.24v.64zm-6.24-15.68h6.24v-.608h-6.24zm0-1.632h6.24v-.544h-6.24z"/><path d="m762.094 427.04h27.072v-1.216h-27.072zm0-1.664h27.072v-1.12h-27.072zm6.24-2.176v-.512h-6.24v1.056h27.072v-1.056h-6.272v.512zm-6.24-9.248h27.072v-.672h-27.072zm27.072 14.048v-.64h-27.072v.64zm-27.072-15.68h27.072v-.608h-27.072zm0-1.632h27.072v-.544h-27.072zm20.8 11.424h6.272v-.992h-6.272zm-20.8 0h6.24v-.992h-6.24zm20.8-1.632h6.272v-.928h-6.272zm-20.8 0h6.24v-.928h-6.24zm20.8-1.632h6.272v-.864h-6.272zm-20.8 0h6.24v-.864h-6.24zm20.8-1.632h6.272v-.8h-6.272zm0-1.632h6.272v-.736h-6.272zm-20.8 1.536v.096h6.24v-.096z"/><path d="m810.714 419.552h-10.272l1.344.928h15.424v-.928h-6.304v.128zm-12.224-1.376.96.672h10.272l-1.184-.864h-16.288v.864h6.24zm5.6 3.936h13.12v-.992h-14.528zm2.336 1.632h10.784v-1.056h-12.288zm-14.176-6.528h15.2l-1.12-.8h-14.08zm16.512 8.16h8.448v-1.12h-10.048zm-16.512-9.792h12.928l-1.024-.736h-11.904zm18.88 11.456h6.08v-1.216h-7.808zm-18.88 0h6.24v-1.216h-6.24zm0-1.664h6.24v-1.12h-6.24zm0-11.424h10.656l-.96-.672h-9.696zm0 9.792h6.24v-1.056h-6.24zm0-1.632h6.24v-.992h-6.24zm0-1.632h6.24v-.928h-6.24zm18.656-1.632h6.304v-.864h-6.304zm0-1.632h6.304v-.8h-6.304zm-18.656-4.896h8.352l-.832-.608h-7.52zm18.656 3.264h6.304v-.736h-6.304zm0-1.632h6.304v-.672h-6.304zm-12.416 14.048v-.64h-6.24v.64zm12.416-15.68h6.304v-.608h-6.304zm0-1.632h6.304v-.544h-6.304zm6.304 17.312v-.64h-5.632l.928.64zm-24.96-17.312h6.08l-.768-.544h-5.312z"/><path clip-rule="evenodd" d="m325.894 386.251-17.794-17.797h-72.917l-17.794 17.797h-.22-36.437l-31.446-17.891c-5.838-3.278-9.227-6.088-11.487-11.427v29.318h-19.395v-69.22h19.395v29.879c2.448-5.339 5.744-7.868 12.617-11.989l30.222-17.89h35.966l-59.692 34.75 42.983 24.589 54.966-53.813c4.519-4.403 9.133-6.557 14.311-6.557h4.939c5.178 0 9.792 2.154 14.311 6.557l65.059 63.694zm-216.221-21.263c0-12.457-3.107-21.918-23.6315-21.918h-59.3154c-4.7075 0-4.7075-4.777-4.7075-8.43h82.9474v-17.609h-78.2399c-21.65477 0-23.7261 8.711-23.7261 22.105 0 12.552 3.95436 21.544 23.7261 21.544h64.9645c-.0942 4.589-.1883 8.242-5.8374 8.242h-78.42809v17.329h78.80469c20.1482 0 23.4432-8.805 23.4432-21.263zm206.644-47.957h98.765v2.58c3.143-1.65 6.774-2.581 10.702-2.581l75.227-.093v17.796h-75.227c-3.766 0-4.236 2.81-4.236 5.808v2.248h79.463v17.89h-79.369v1.593c0 3.372.471 5.901 4.142 5.901h75.227v18.078h-75.227c-13.275 0-22.313-8.711-22.313-22.012v-25.103c0-1.511.143-2.983.418-4.402h-29.292v51.517h-17.512v-51.33h-40.768zm193.266 15.361c0-9.18 8.473-16.392 17.606-16.392 5.178 0 9.792 2.154 14.311 6.557l47.358 45.335v-50.955h17.7v50.955c0 11.053-8.191 19.108-17.7 19.108-5.178 0-8.568-1.967-19.207-11.24l-42.462-41.214v51.705h-17.606zm203.268 2.341v-17.796l-75.227.093c-12.71 0-22.314 9.742-22.314 22.106v25.103c0 13.301 9.039 22.012 22.314 22.012h75.227v-18.078h-75.227c-3.672 0-4.143-2.529-4.143-5.901v-1.593h79.37v-17.89h-79.464v-2.248c0-2.998.471-5.808 4.237-5.808zm8.384-17.702h98.765v17.703h-40.485v51.517h-17.512v-51.33h-40.768zm-471.081 36.53 19.018-19.015h4.939l19.019 19.015z" fill-rule="evenodd"/><path d="m287.321 86.4882-285.321 198.5118h402.63v-116.814z"/><path d="m418.63 285v-116.815l117.309-81.697 285.321 198.512z"/><path d="m411.63 0 112 78-112 78-112-78z"/></g></svg>